{
	"nodes":[{
		"scale":[1.0,
		1.0,
		1.0],
		"name":"Camiseta_Inglaterra_Baja",
		"translation":[0.0,
		0.0,
		0.0],
		"rotation":[0.0,
		0.0,
		0.0,
		-1.0],
		"children":[1,
		2,
		3,
		4,
		5,
		6,
		7]
	},
	{
		"scale":[1.0,
		1.0,
		1.0],
		"name":"Camiseta_Inglaterra_Baja-Elastico_I",
		"translation":[0.0,
		0.0,
		0.0],
		"rotation":[0.0,
		0.0,
		0.0,
		-1.0],
		"mesh":0
	},
	{
		"scale":[1.0,
		1.0,
		1.0],
		"name":"Camiseta_Inglaterra_Baja-Espalda",
		"translation":[0.0,
		0.0,
		0.0],
		"rotation":[0.0,
		0.0,
		0.0,
		-1.0],
		"mesh":1
	},
	{
		"scale":[1.0,
		1.0,
		1.0],
		"name":"Camiseta_Inglaterra_Baja-Manga_I",
		"translation":[0.0,
		0.0,
		0.0],
		"rotation":[0.0,
		0.0,
		0.0,
		-1.0],
		"mesh":2
	},
	{
		"scale":[1.0,
		1.0,
		1.0],
		"name":"Camiseta_Inglaterra_Baja-Pecho",
		"translation":[0.0,
		0.0,
		0.0],
		"rotation":[0.0,
		0.0,
		0.0,
		-1.0],
		"mesh":3
	},
	{
		"scale":[1.0,
		1.0,
		1.0],
		"name":"Camiseta_Inglaterra_Baja-Elastico_D",
		"translation":[0.0,
		0.0,
		0.0],
		"rotation":[0.0,
		0.0,
		0.0,
		-1.0],
		"mesh":4
	},
	{
		"scale":[1.0,
		1.0,
		1.0],
		"name":"Camiseta_Inglaterra_Baja-Manga_D",
		"translation":[0.0,
		0.0,
		0.0],
		"rotation":[0.0,
		0.0,
		0.0,
		-1.0],
		"mesh":5
	},
	{
		"scale":[1.0,
		1.0,
		1.0],
		"name":"Camiseta_Inglaterra_Baja-Cuello",
		"translation":[0.0,
		0.0,
		0.0],
		"rotation":[0.0,
		0.0,
		0.0,
		-1.0],
		"mesh":6
	}],
	"asset":{
		"version":"2.0",
		"generator":"Created using the official Cinema 4D glTF Exporter 1.000x284978"
	},
	"scenes":[{
		"nodes":[0]
	}],
	"meshes":[{
		"name":"Camiseta_Inglaterra_Baja-Elastico_I",
		"primitives":[{
			"attributes":{
				"POSITION":1,
				"NORMAL":2,
				"TEXCOORD_0":3
			},
			"indices":0,
			"material":0
		}]
	},
	{
		"name":"Camiseta_Inglaterra_Baja-Espalda",
		"primitives":[{
			"attributes":{
				"POSITION":5,
				"NORMAL":6,
				"TEXCOORD_0":7
			},
			"indices":4,
			"material":1
		}]
	},
	{
		"name":"Camiseta_Inglaterra_Baja-Manga_I",
		"primitives":[{
			"attributes":{
				"POSITION":9,
				"NORMAL":10,
				"TEXCOORD_0":11
			},
			"indices":8,
			"material":2
		}]
	},
	{
		"name":"Camiseta_Inglaterra_Baja-Pecho",
		"primitives":[{
			"attributes":{
				"POSITION":13,
				"NORMAL":14,
				"TEXCOORD_0":15
			},
			"indices":12,
			"material":3
		}]
	},
	{
		"name":"Camiseta_Inglaterra_Baja-Elastico_D",
		"primitives":[{
			"attributes":{
				"POSITION":17,
				"NORMAL":18,
				"TEXCOORD_0":19
			},
			"indices":16,
			"material":4
		}]
	},
	{
		"name":"Camiseta_Inglaterra_Baja-Manga_D",
		"primitives":[{
			"attributes":{
				"POSITION":21,
				"NORMAL":22,
				"TEXCOORD_0":23
			},
			"indices":20,
			"material":5
		}]
	},
	{
		"name":"Camiseta_Inglaterra_Baja-Cuello",
		"primitives":[{
			"attributes":{
				"POSITION":25,
				"NORMAL":26,
				"TEXCOORD_0":27
			},
			"indices":24,
			"material":6
		}]
	}],
	"accessors":[{
		"bufferView":0,
		"type":"SCALAR",
		"componentType":5123,
		"max":[593],
		"count":3162,
		"byteOffset":0,
		"min":[0]
	},
	{
		"bufferView":1,
		"type":"VEC3",
		"componentType":5126,
		"max":[3.7687759399414064,
		1.7922724485397339,
		0.7163240313529968],
		"count":594,
		"byteOffset":0,
		"min":[2.6563334465026857,
		0.6883670091629028,
		-0.5195419192314148]
	},
	{
		"bufferView":1,
		"type":"VEC3",
		"componentType":5126,
		"max":[0.9994375705718994,
		0.1757500022649765,
		0.9928125739097595],
		"count":594,
		"byteOffset":12,
		"min":[-0.9774063229560852,
		-0.9993438124656677,
		-0.9954375624656677]
	},
	{
		"bufferView":1,
		"type":"VEC2",
		"componentType":5126,
		"max":[0.965577244758606,
		0.7126337289810181],
		"count":594,
		"byteOffset":24,
		"min":[0.8334786891937256,
		0.6698989868164063]
	},
	{
		"bufferView":2,
		"type":"SCALAR",
		"componentType":5123,
		"max":[2006],
		"count":11376,
		"byteOffset":0,
		"min":[0]
	},
	{
		"bufferView":3,
		"type":"VEC3",
		"componentType":5126,
		"max":[2.7669405937194826,
		10.330244064331055,
		0.3626810610294342],
		"count":2007,
		"byteOffset":0,
		"min":[-2.5497071743011476,
		-0.004289299249649048,
		-1.8987501859664918]
	},
	{
		"bufferView":3,
		"type":"VEC3",
		"componentType":5126,
		"max":[0.9995625615119934,
		0.9591562747955322,
		0.9984375238418579],
		"count":2007,
		"byteOffset":12,
		"min":[-0.9999688267707825,
		-0.9999688267707825,
		-0.9998750686645508]
	},
	{
		"bufferView":3,
		"type":"VEC2",
		"componentType":5126,
		"max":[0.6477165222167969,
		0.7719382047653198],
		"count":2007,
		"byteOffset":24,
		"min":[0.34242409467697146,
		0.3205859661102295]
	},
	{
		"bufferView":4,
		"type":"SCALAR",
		"componentType":5123,
		"max":[1362],
		"count":7776,
		"byteOffset":0,
		"min":[0]
	},
	{
		"bufferView":5,
		"type":"VEC3",
		"componentType":5126,
		"max":[3.757284164428711,
		9.570815086364746,
		1.1253697872161866],
		"count":1363,
		"byteOffset":0,
		"min":[2.189913272857666,
		1.6485702991485596,
		-0.9873949289321899]
	},
	{
		"bufferView":5,
		"type":"VEC3",
		"componentType":5126,
		"max":[0.9985625743865967,
		0.8382812738418579,
		0.9997813105583191],
		"count":1363,
		"byteOffset":12,
		"min":[-0.9998125433921814,
		-0.9703750610351563,
		-0.9996563196182251]
	},
	{
		"bufferView":5,
		"type":"VEC2",
		"componentType":5126,
		"max":[0.9798767566680908,
		0.6623281240463257],
		"count":1363,
		"byteOffset":24,
		"min":[0.8166242837905884,
		0.3716292977333069]
	},
	{
		"bufferView":6,
		"type":"SCALAR",
		"componentType":5123,
		"max":[2107],
		"count":11946,
		"byteOffset":0,
		"min":[0]
	},
	{
		"bufferView":7,
		"type":"VEC3",
		"componentType":5126,
		"max":[2.799351215362549,
		10.301599502563477,
		2.5600006580352785],
		"count":2108,
		"byteOffset":0,
		"min":[-2.5648012161254885,
		-0.01165325939655304,
		-0.2111341804265976]
	},
	{
		"bufferView":7,
		"type":"VEC3",
		"componentType":5126,
		"max":[0.9997813105583191,
		0.971781313419342,
		0.9998750686645508],
		"count":2108,
		"byteOffset":12,
		"min":[-0.9998750686645508,
		-0.9999688267707825,
		-0.9847813248634338]
	},
	{
		"bufferView":7,
		"type":"VEC2",
		"componentType":5126,
		"max":[0.3209350109100342,
		0.769694447517395],
		"count":2108,
		"byteOffset":24,
		"min":[0.02851959690451622,
		0.31982421875]
	},
	{
		"bufferView":8,
		"type":"SCALAR",
		"componentType":5123,
		"max":[593],
		"count":3162,
		"byteOffset":0,
		"min":[0]
	},
	{
		"bufferView":9,
		"type":"VEC3",
		"componentType":5126,
		"max":[-2.4977452754974367,
		1.5394659042358399,
		0.734383225440979],
		"count":594,
		"byteOffset":0,
		"min":[-3.631014108657837,
		0.4494914412498474,
		-0.5403516888618469]
	},
	{
		"bufferView":9,
		"type":"VEC3",
		"componentType":5126,
		"max":[0.9860938191413879,
		0.11271875351667404,
		0.991187572479248],
		"count":594,
		"byteOffset":12,
		"min":[-0.9981250762939453,
		-0.999093770980835,
		-0.9929375648498535]
	},
	{
		"bufferView":9,
		"type":"VEC2",
		"componentType":5126,
		"max":[0.7893761396408081,
		0.7141977548599243],
		"count":594,
		"byteOffset":24,
		"min":[0.6572778224945068,
		0.671463131904602]
	},
	{
		"bufferView":10,
		"type":"SCALAR",
		"componentType":5123,
		"max":[1298],
		"count":7398,
		"byteOffset":0,
		"min":[0]
	},
	{
		"bufferView":11,
		"type":"VEC3",
		"componentType":5126,
		"max":[-2.1114516258239748,
		9.64400863647461,
		1.162087082862854],
		"count":1299,
		"byteOffset":0,
		"min":[-3.6437740325927736,
		1.4819068908691407,
		-0.9712339639663696]
	},
	{
		"bufferView":11,
		"type":"VEC3",
		"componentType":5126,
		"max":[0.9993438124656677,
		0.9314063191413879,
		0.9998750686645508],
		"count":1299,
		"byteOffset":12,
		"min":[-0.998468816280365,
		-0.9835938215255737,
		-0.9999688267707825]
	},
	{
		"bufferView":11,
		"type":"VEC2",
		"componentType":5126,
		"max":[0.8097772002220154,
		0.6637728214263916],
		"count":1299,
		"byteOffset":24,
		"min":[0.6505197882652283,
		0.37139177322387698]
	},
	{
		"bufferView":12,
		"type":"SCALAR",
		"componentType":5123,
		"max":[1758],
		"count":10008,
		"byteOffset":0,
		"min":[0]
	},
	{
		"bufferView":13,
		"type":"VEC3",
		"componentType":5126,
		"max":[1.2245773077011109,
		10.510857582092286,
		1.1143335103988648],
		"count":1759,
		"byteOffset":0,
		"min":[-1.0096549987792969,
		9.611027717590332,
		-0.6684486269950867]
	},
	{
		"bufferView":13,
		"type":"VEC3",
		"componentType":5126,
		"max":[0.99937504529953,
		0.9982500672340393,
		0.9999688267707825],
		"count":1759,
		"byteOffset":12,
		"min":[-0.99937504529953,
		-0.8438438177108765,
		-0.9992188215255737]
	},
	{
		"bufferView":13,
		"type":"VEC2",
		"componentType":5126,
		"max":[0.48006561398506167,
		0.2939344048500061],
		"count":1759,
		"byteOffset":24,
		"min":[0.08698228001594544,
		0.26528722047805788]
	}],
	"bufferViews":[{
		"buffer":0,
		"byteOffset":0,
		"byteLength":6324,
		"target":34963
	},
	{
		"buffer":0,
		"byteOffset":6324,
		"byteLength":19008,
		"target":34962,
		"byteStride":32
	},
	{
		"buffer":1,
		"byteOffset":0,
		"byteLength":22752,
		"target":34963
	},
	{
		"buffer":1,
		"byteOffset":22752,
		"byteLength":64224,
		"target":34962,
		"byteStride":32
	},
	{
		"buffer":2,
		"byteOffset":0,
		"byteLength":15552,
		"target":34963
	},
	{
		"buffer":2,
		"byteOffset":15552,
		"byteLength":43616,
		"target":34962,
		"byteStride":32
	},
	{
		"buffer":3,
		"byteOffset":0,
		"byteLength":23892,
		"target":34963
	},
	{
		"buffer":3,
		"byteOffset":23892,
		"byteLength":67456,
		"target":34962,
		"byteStride":32
	},
	{
		"buffer":4,
		"byteOffset":0,
		"byteLength":6324,
		"target":34963
	},
	{
		"buffer":4,
		"byteOffset":6324,
		"byteLength":19008,
		"target":34962,
		"byteStride":32
	},
	{
		"buffer":5,
		"byteOffset":0,
		"byteLength":14796,
		"target":34963
	},
	{
		"buffer":5,
		"byteOffset":14796,
		"byteLength":41568,
		"target":34962,
		"byteStride":32
	},
	{
		"buffer":6,
		"byteOffset":0,
		"byteLength":20016,
		"target":34963
	},
	{
		"buffer":6,
		"byteOffset":20016,
		"byteLength":56288,
		"target":34962,
		"byteStride":32
	}],
	"buffers":[{
		"uri":"data:application/octet-stream;base64,",
		"byteLength":25332
	},
	{
		"uri":"data:application/octet-stream;base64,",
		"byteLength":86976
	},
	{
		"uri":"data:application/octet-stream;base64,",
		"byteLength":59168
	},
	{
		"uri":"data:application/octet-stream;base64,",
		"byteLength":91348
	},
	{
		"uri":"data:application/octet-stream;base64,",
		"byteLength":25332
	},
	{
		"uri":"data:application/octet-stream;base64,",
		"byteLength":56364
	},
	{
		"uri":"data:application/octet-stream;base64,",
		"byteLength":76304
	}],
	"images":[{
		"uri":"data:image/jpeg;base64,"
	},
	{
		"uri":"data:image/jpeg;base64,"
	},
	{
		"uri":"data:image/jpeg;base64,"
	},
	{
		"uri":"data:image/jpeg;base64,"
	},
	{
		"uri":"data:image/jpeg;base64,"
	},
	{
		"uri":"data:image/jpeg;base64,"
	},
	{
		"uri":"data:image/jpeg;base64,"
	},
	{
		"uri":"data:image/jpeg;base64,"
	},
	{
		"uri":"data:image/jpeg;base64,"
	},
	{
		"uri":"data:image/jpeg;base64,"
	},
	{
		"uri":"data:image/jpeg;base64,"
	},
	{
		"uri":"data:image/jpeg;base64,"
	},
	{
		"uri":"data:image/jpeg;base64,"
	},
	{
		"uri":"data:image/jpeg;base64,"
	}],
	"samplers":[{
		"magFilter":9729,
		"minFilter":9729,
		"wrapS":10497,
		"wrapT":10497
	},
	{
		"magFilter":9729,
		"minFilter":9729,
		"wrapS":10497,
		"wrapT":10497
	},
	{
		"magFilter":9729,
		"minFilter":9729,
		"wrapS":10497,
		"wrapT":10497
	},
	{
		"magFilter":9729,
		"minFilter":9729,
		"wrapS":10497,
		"wrapT":10497
	},
	{
		"magFilter":9729,
		"minFilter":9729,
		"wrapS":10497,
		"wrapT":10497
	},
	{
		"magFilter":9729,
		"minFilter":9729,
		"wrapS":10497,
		"wrapT":10497
	},
	{
		"magFilter":9729,
		"minFilter":9729,
		"wrapS":10497,
		"wrapT":10497
	},
	{
		"magFilter":9729,
		"minFilter":9729,
		"wrapS":10497,
		"wrapT":10497
	},
	{
		"magFilter":9729,
		"minFilter":9729,
		"wrapS":10497,
		"wrapT":10497
	},
	{
		"magFilter":9729,
		"minFilter":9729,
		"wrapS":10497,
		"wrapT":10497
	},
	{
		"magFilter":9729,
		"minFilter":9729,
		"wrapS":10497,
		"wrapT":10497
	},
	{
		"magFilter":9729,
		"minFilter":9729,
		"wrapS":10497,
		"wrapT":10497
	},
	{
		"magFilter":9729,
		"minFilter":9729,
		"wrapS":10497,
		"wrapT":10497
	},
	{
		"magFilter":9729,
		"minFilter":9729,
		"wrapS":10497,
		"wrapT":10497
	}],
	"textures":[{
		"sampler":0,
		"source":0
	},
	{
		"sampler":1,
		"source":1
	},
	{
		"sampler":2,
		"source":2
	},
	{
		"sampler":3,
		"source":3
	},
	{
		"sampler":4,
		"source":4
	},
	{
		"sampler":5,
		"source":5
	},
	{
		"sampler":6,
		"source":6
	},
	{
		"sampler":7,
		"source":7
	},
	{
		"sampler":8,
		"source":8
	},
	{
		"sampler":9,
		"source":9
	},
	{
		"sampler":10,
		"source":10
	},
	{
		"sampler":11,
		"source":11
	},
	{
		"sampler":12,
		"source":12
	},
	{
		"sampler":13,
		"source":13
	}],
	"materials":[{
		"pbrMetallicRoughness":{
			"baseColorTexture":{
				"index":0
			},
			"baseColorFactor":[1.0,
			1.0,
			1.0,
			1.0],
			"metallicFactor":0.2,
			"roughnessFactor":0.8
		},
		"normalTexture":{
			"index":1,
			"scale":1.0
		},
		"emissiveFactor":[0.0,
		0.0,
		0.0],
		"alphaMode":"OPAQUE",
		"doubleSided":true,
		"name":"Elastico_I"
	},
	{
		"pbrMetallicRoughness":{
			"baseColorTexture":{
				"index":2
			},
			"baseColorFactor":[1.0,
			1.0,
			1.0,
			1.0],
			"metallicFactor":0.2,
			"roughnessFactor":0.8
		},
		"normalTexture":{
			"index":3,
			"scale":1.0
		},
		"emissiveFactor":[0.0,
		0.0,
		0.0],
		"alphaMode":"OPAQUE",
		"doubleSided":true,
		"name":"Espalda"
	},
	{
		"pbrMetallicRoughness":{
			"baseColorTexture":{
				"index":4
			},
			"baseColorFactor":[1.0,
			1.0,
			1.0,
			1.0],
			"metallicFactor":0.2,
			"roughnessFactor":0.8
		},
		"normalTexture":{
			"index":5,
			"scale":1.0
		},
		"emissiveFactor":[0.0,
		0.0,
		0.0],
		"alphaMode":"OPAQUE",
		"doubleSided":true,
		"name":"Manga_I"
	},
	{
		"pbrMetallicRoughness":{
			"baseColorTexture":{
				"index":6
			},
			"baseColorFactor":[1.0,
			1.0,
			1.0,
			1.0],
			"metallicFactor":0.2,
			"roughnessFactor":0.8
		},
		"normalTexture":{
			"index":7,
			"scale":1.0
		},
		"emissiveFactor":[0.0,
		0.0,
		0.0],
		"alphaMode":"OPAQUE",
		"doubleSided":true,
		"name":"Pecho"
	},
	{
		"pbrMetallicRoughness":{
			"baseColorTexture":{
				"index":8
			},
			"baseColorFactor":[1.0,
			1.0,
			1.0,
			1.0],
			"metallicFactor":0.2,
			"roughnessFactor":0.8
		},
		"normalTexture":{
			"index":9,
			"scale":1.0
		},
		"emissiveFactor":[0.0,
		0.0,
		0.0],
		"alphaMode":"OPAQUE",
		"doubleSided":true,
		"name":"Elastico_D"
	},
	{
		"pbrMetallicRoughness":{
			"baseColorTexture":{
				"index":10
			},
			"baseColorFactor":[1.0,
			1.0,
			1.0,
			1.0],
			"metallicFactor":0.2,
			"roughnessFactor":0.8
		},
		"normalTexture":{
			"index":11,
			"scale":1.0
		},
		"emissiveFactor":[0.0,
		0.0,
		0.0],
		"alphaMode":"OPAQUE",
		"doubleSided":true,
		"name":"Manga_D"
	},
	{
		"pbrMetallicRoughness":{
			"baseColorTexture":{
				"index":12
			},
			"baseColorFactor":[1.0,
			1.0,
			1.0,
			1.0],
			"metallicFactor":0.2,
			"roughnessFactor":0.8
		},
		"normalTexture":{
			"index":13,
			"scale":1.0
		},
		"emissiveFactor":[0.0,
		0.0,
		0.0],
		"alphaMode":"OPAQUE",
		"doubleSided":true,
		"name":"Cuello"
	}]
}